<?xml version="1.0" encoding="utf-8"?>
<!-- Generator: Adobe Illustrator 19.2.1, SVG Export Plug-In . SVG Version: 6.00 Build 0)  -->
<svg version="1.1" id="layer" xmlns="http://www.w3.org/2000/svg" xmlns:xlink="http://www.w3.org/1999/xlink" x="0px" y="0px"
	 viewBox="0 0 652 652" style="enable-background:new 0 0 652 652;" xml:space="preserve">
<style type="text/css">
	.st0{clip-path:url(#SVGID_2_);fill:url(#SVGID_3_);}
	.st1{fill-rule:evenodd;clip-rule:evenodd;fill:#3A3938;}
	.st2{fill:#3A3938;}
	.st3{clip-path:url(#SVGID_5_);fill:url(#SVGID_6_);}
	.st4{clip-path:url(#SVGID_8_);fill:url(#SVGID_9_);}
	.st5{fill:#0069A6;}
	.st6{clip-path:url(#SVGID_11_);fill:url(#SVGID_12_);}
	.st7{clip-path:url(#SVGID_14_);fill:url(#SVGID_15_);}
</style>
<g>
	<g>
		<g>
			<defs>
				<path id="SVGID_1_" d="M271.1,298.3h7.3c3.4,0,6.3,0.6,8.7,1.7c2.5,1.1,4.5,2.6,6.1,4.6c1.6,2,2.8,4.3,3.6,7
					c0.8,2.7,1.2,5.6,1.2,8.8c0,14.6-7.2,21.9-21.7,21.9h-5.2V298.3z M257,288.6v63.3h21.2c5.2,0,9.9-0.6,14.1-1.9
					c4.2-1.3,7.9-3.2,10.9-5.8c3-2.6,5.3-5.9,7-9.9c1.6-3.9,2.5-8.6,2.5-14c0-10.5-2.8-18.4-8.4-23.7c-5.6-5.3-13.6-8-23.9-8H257z
					 M429.6,288.6v51.8l-23.4-51.8h-20.5v63.3h12.4v-51.7l23.3,51.7h20.6v-63.3H429.6z M468.2,297.3h8c1.4,0,2.8,0.1,4.2,0.4
					c1.4,0.3,2.6,0.8,3.7,1.4c1,0.7,1.9,1.6,2.6,2.7c0.7,1.1,1,2.5,1,4.2c0,1.8-0.4,3.4-1.1,4.6c-0.7,1.2-1.7,2.2-2.8,2.9
					c-1.2,0.7-2.5,1.2-4,1.5c-1.5,0.3-1.4,0.4-3,0.4h-0.2v8.1c1.6,0,1.6,0.1,3.2,0.4c1.7,0.3,3.3,0.7,4.7,1.5c1.4,0.7,2.5,1.7,3.4,3
					c0.9,1.3,1.3,3,1.3,5.1c0,1.9-0.4,3.6-1.3,4.8c-0.9,1.3-1.9,2.2-3.3,3c-1.3,0.7-2.8,1.2-4.5,1.5c-1.7,0.3-3.3,0.4-4.9,0.4h-6.7
					V297.3z M454.7,288.6v63.3h23.2c3.1,0,6.1-0.2,9.2-0.7c3-0.4,5.7-1.3,8.1-2.6c2.4-1.3,4.3-3.1,5.7-5.5c1.5-2.3,2.2-5.4,2.2-9.1
					c0-4.3-1.3-7.7-4-10.2c-2.7-2.5-6-4.1-10-4.8c3.9-0.9,6.2-2.6,8.4-5c2.2-2.5,3.3-5.7,3.3-9.8c0-3-0.6-5.6-1.8-7.6
					c-1.2-2-2.8-3.6-4.7-4.8c-2-1.2-4.2-2-6.7-2.5c-2.5-0.5-4.3-0.8-6.9-0.8H454.7z M340.1,289.9c-4.2,1.5-7.9,3.7-11.1,6.5
					c-3.1,2.8-5.6,6.2-7.4,10.3c-1.8,4-2.7,8.6-2.7,13.6c0,5.2,0.9,9.9,2.6,13.9c1.7,4,4.1,7.4,7.2,10.2c3.1,2.8,6.7,4.9,11,6.3
					c4.2,1.5,7.6,2.2,12.7,2.2c3.9,0,6.7-0.3,10.4-0.9c3.7-0.6,7.4-1.6,11.1-2.9v-30.5h-12.5v22.8c-1.6,0.6-3.3,1.1-4.9,1.3
					c-1.6,0.2-2.3,0.3-4,0.3c-3.4,0-5.1-0.6-7.6-1.8c-2.5-1.2-4.6-2.8-6.2-4.8c-1.6-2.1-2.9-4.5-3.7-7.2c-0.8-2.8-1.2-5.7-1.2-8.9
					c0-3.5,0.5-6.6,1.6-9.4c1.1-2.8,2.6-5.2,4.6-7.2c2-2,3.8-3.3,6.3-4.5c2.7-1.3,5.3-1.6,8.2-1.6c2.8,0,5.5,0.3,8.3,0.8
					c2.8,0.5,5.4,1.4,7.9,2.7l0.6-10.6c-3-1-6.3-1.7-9.7-2.1c-3.4-0.5-5.8-0.7-9-0.7C347.6,287.6,344.4,288.4,340.1,289.9"/>
			</defs>
			<clipPath id="SVGID_2_">
				<use xlink:href="#SVGID_1_"  style="overflow:visible;"/>
			</clipPath>
			
				<linearGradient id="SVGID_3_" gradientUnits="userSpaceOnUse" x1="9.1064" y1="735.4871" x2="12.6941" y2="735.4871" gradientTransform="matrix(0 -18.1909 -18.1909 0 13759.1738 518.5558)">
				<stop  offset="0" style="stop-color:#4AA139"/>
				<stop  offset="0.9428" style="stop-color:#69AB3E"/>
				<stop  offset="1" style="stop-color:#6BAC3E"/>
			</linearGradient>
			<rect x="257" y="287.6" class="st0" width="246" height="65.3"/>
		</g>
		<g>
			<path class="st1" d="M257,387.3h2.3c5.6,0,7.7-3.4,7.7-7.7c0-3.4-1.4-5.3-2.8-6.2c-0.9-0.6-2-1.1-4-1.1H257V387.3z M258.9,373.9
				h1.1c3.7,0,5,2.5,5,5.6c0,3.8-1.7,6.1-5,6.1h-1.1V373.9z"/>
			<path class="st1" d="M276.7,382.3v-1c0-3.2-1.4-5.2-3.8-5.2c-2.7,0-4.2,2.2-4.2,5.6c0,3.4,1.5,5.6,4.4,5.6c1.1,0,2.2-0.2,3.1-0.6
				l-0.1-1.6c-0.6,0.4-1.6,0.9-2.5,0.9c-2,0-3-1.2-3-3.7H276.7z M270.6,381c0-2.6,1.1-3.4,2.2-3.4c1.4,0,2.1,1.1,2.1,3.4H270.6z"/>
			<path class="st2" d="M286.5,376.3h-1.8v6.6c0,2-0.9,3-2.3,3c-1.2,0-1.8-0.8-1.8-2.5v-7.1h-1.8v7.6c0,2.4,1.3,3.5,3.2,3.5
				c1.3,0,2.2-0.5,2.8-1.8h0l0.1,1.6h1.7c0-0.8-0.1-1.6-0.1-2.4V376.3z"/>
			<path class="st2" d="M293.9,385.7c-0.3,0.2-0.7,0.3-1.1,0.3c-0.8,0-1.1-0.5-1.1-1.7v-6.5h2.3v-1.5h-2.3v-2.8l-1.8,0.5v2.2h-1.7
				v1.5h1.7v7c0,1.9,0.9,2.6,2.5,2.6c0.5,0,1.1-0.1,1.5-0.3V385.7z"/>
			<path class="st2" d="M294.9,386.8c0.8,0.4,1.8,0.6,3,0.6c2.5,0,3.5-1.5,3.5-3.4c0-1.4-0.8-2.3-2.2-2.8l-0.6-0.3
				c-1.2-0.5-1.8-1-1.8-1.9c0-0.9,0.6-1.5,1.8-1.5c0.8,0,1.6,0.2,2.1,0.5l0.1-1.5c-0.6-0.2-1.4-0.4-2.3-0.4c-2.1,0-3.5,1.4-3.5,3.2
				c0,1.4,0.6,2.1,2.1,2.8l1.2,0.5c1,0.5,1.4,1,1.4,1.7c0,0.8-0.7,1.5-2.1,1.5c-0.9,0-1.8-0.3-2.6-0.8L294.9,386.8z"/>
			<path class="st2" d="M309.9,376.6c-0.6-0.3-1.4-0.4-2.2-0.4c-3,0-4.9,2.2-4.9,5.7c0,3.1,1.6,5.5,4.9,5.5c0.8,0,1.8-0.2,2.3-0.5
				l-0.1-1.7c-0.6,0.3-1.4,0.6-2.2,0.6c-1.8,0-3-1.4-3-4c0-3,1.2-4.2,3-4.2c0.8,0,1.5,0.2,2.1,0.5L309.9,376.6z"/>
			<path class="st2" d="M311.8,387.3h1.8v-6.6c0-2,0.9-3,2.3-3c1.2,0,1.8,0.7,1.8,2.5v7.1h1.8v-7.6c0-2.4-1.3-3.5-3.2-3.5
				c-1.3,0-2.2,0.7-2.7,1.7h0v-6.7h-1.8V387.3z"/>
			<path class="st1" d="M329.7,382.3v-1c0-3.2-1.4-5.2-3.8-5.2c-2.7,0-4.2,2.2-4.2,5.6c0,3.4,1.5,5.6,4.4,5.6c1.1,0,2.2-0.2,3.1-0.6
				l-0.1-1.6c-0.6,0.4-1.6,0.9-2.5,0.9c-2,0-3-1.2-3-3.7H329.7z M323.5,381c0-2.6,1.1-3.4,2.2-3.4c1.4,0,2.1,1.1,2.1,3.4H323.5z"/>
			<path class="st2" d="M347,379h-4.3v1.6h2.5v4.7c-0.5,0.3-1.3,0.4-1.9,0.4c-3.3,0-4.8-2.6-4.8-6.4c0-3.7,2.2-5.6,4.7-5.6
				c1.1,0,2.4,0.3,3.5,0.9v-1.9c-1-0.5-2.2-0.7-3.5-0.7c-3.9,0-6.6,2.9-6.6,7.6c0,4.1,2,7.7,6.7,7.7c1.3,0,2.8-0.5,3.7-0.8V379z"/>
			<path class="st1" d="M357.5,382.3v-1c0-3.2-1.4-5.2-3.8-5.2c-2.7,0-4.2,2.2-4.2,5.6c0,3.4,1.5,5.6,4.4,5.6c1.1,0,2.2-0.2,3.1-0.6
				l-0.1-1.6c-0.6,0.4-1.6,0.9-2.5,0.9c-2,0-3-1.2-3-3.7H357.5z M351.3,381c0-2.6,1.1-3.4,2.2-3.4c1.4,0,2.1,1.1,2.1,3.4H351.3z"/>
			<path class="st2" d="M358.9,386.8c0.8,0.4,1.8,0.6,3,0.6c2.5,0,3.5-1.5,3.5-3.4c0-1.4-0.8-2.3-2.2-2.8l-0.6-0.3
				c-1.2-0.5-1.9-1-1.9-1.9c0-0.9,0.6-1.5,1.8-1.5c0.8,0,1.6,0.2,2.1,0.5l0.1-1.5c-0.6-0.2-1.4-0.4-2.3-0.4c-2.1,0-3.5,1.4-3.5,3.2
				c0,1.4,0.6,2.1,2.1,2.8l1.2,0.5c1,0.5,1.4,1,1.4,1.7c0,0.8-0.7,1.5-2.1,1.5c-0.9,0-1.8-0.3-2.6-0.8L358.9,386.8z"/>
			<path class="st1" d="M375,382.3v-1c0-3.2-1.4-5.2-3.8-5.2c-2.7,0-4.2,2.2-4.2,5.6c0,3.4,1.5,5.6,4.4,5.6c1.1,0,2.2-0.2,3.1-0.6
				l-0.1-1.6c-0.6,0.4-1.6,0.9-2.5,0.9c-2,0-3-1.2-3-3.7H375z M368.8,381c0-2.6,1.1-3.4,2.2-3.4c1.4,0,2.1,1.1,2.1,3.4H368.8z"/>
			<rect x="377.1" y="371.2" class="st2" width="1.8" height="16.1"/>
			<rect x="381.9" y="371.2" class="st2" width="1.8" height="16.1"/>
			<path class="st2" d="M385.9,386.8c0.8,0.4,1.8,0.6,3,0.6c2.5,0,3.5-1.5,3.5-3.4c0-1.4-0.8-2.3-2.2-2.8l-0.6-0.3
				c-1.2-0.5-1.8-1-1.8-1.9c0-0.9,0.6-1.5,1.8-1.5c0.8,0,1.6,0.2,2.1,0.5l0.1-1.5c-0.6-0.2-1.4-0.4-2.3-0.4c-2.1,0-3.5,1.4-3.5,3.2
				c0,1.4,0.6,2.1,2.1,2.8l1.2,0.5c1,0.5,1.4,1,1.4,1.7c0,0.8-0.7,1.5-2.1,1.5c-0.9,0-1.8-0.3-2.6-0.8L385.9,386.8z"/>
			<path class="st2" d="M401,376.6c-0.6-0.3-1.4-0.4-2.2-0.4c-3,0-4.9,2.2-4.9,5.7c0,3.1,1.6,5.5,4.9,5.5c0.8,0,1.8-0.2,2.3-0.5
				l-0.1-1.7c-0.6,0.3-1.4,0.6-2.2,0.6c-1.8,0-3-1.4-3-4c0-3,1.2-4.2,3-4.2c0.8,0,1.5,0.2,2.1,0.5L401,376.6z"/>
			<path class="st2" d="M402.8,387.3h1.8v-6.6c0-2,0.9-3,2.3-3c1.2,0,1.8,0.7,1.8,2.5v7.1h1.8v-7.6c0-2.4-1.3-3.5-3.2-3.5
				c-1.3,0-2.2,0.7-2.7,1.7h0v-6.7h-1.8V387.3z"/>
			<path class="st1" d="M413.8,378.8c0.6-0.7,1.7-1.1,2.8-1.1c0.8,0,1.5,0.2,1.8,0.7c0.3,0.5,0.4,0.9,0.4,1.8v0.5h-1.1
				c-3.8,0-5.2,1.6-5.2,3.7c0,2.1,1.4,3.2,3.2,3.2c1.7,0,2.6-0.8,3.1-1.6h0l0.1,1.5h1.6c0-0.4-0.1-1-0.1-1.7v-5.7
				c0-1.5-0.5-2.2-1-2.7c-0.3-0.3-1.3-1-2.9-1c-1.1,0-2.2,0.3-3.1,0.9L413.8,378.8z M418.8,383.3c0,1.5-1,2.8-2.6,2.8
				c-1.2,0-1.8-0.8-1.8-1.9c0-1.3,1-2.3,3.1-2.3c0.5,0,0.9,0,1.3,0V383.3z"/>
			<path class="st2" d="M423.9,387.3h1.8v-9.5h2v-1.5h-2V374c0-1.1,0.3-1.7,1.3-1.7c0.4,0,0.8,0.1,1,0.3v-1.5
				c-0.4-0.1-0.9-0.2-1.4-0.2c-1.9,0-2.7,1.2-2.7,3v2.4h-1.7v1.5h1.7V387.3z"/>
			<path class="st2" d="M433.9,385.7c-0.3,0.2-0.7,0.3-1.1,0.3c-0.8,0-1.1-0.5-1.1-1.7v-6.5h2.3v-1.5h-2.3v-2.8l-1.8,0.5v2.2h-1.7
				v1.5h1.7v7c0,1.9,0.9,2.6,2.5,2.6c0.5,0,1.1-0.1,1.5-0.3V385.7z"/>
			<path class="st2" d="M441.4,387.3h1.8v-9.5h2v-1.5h-2V374c0-1.1,0.3-1.7,1.3-1.7c0.4,0,0.8,0.1,1,0.3v-1.5
				c-0.4-0.1-0.9-0.2-1.4-0.2c-1.9,0-2.7,1.2-2.7,3v2.4h-1.7v1.5h1.7V387.3z"/>
			<path class="st1" d="M454.3,376.3h-1.8v6.6c0,2-0.9,3-2.3,3c-1.2,0-1.8-0.8-1.8-2.5v-7.1h-1.8v7.6c0,2.4,1.3,3.5,3.2,3.5
				c1.3,0,2.2-0.5,2.8-1.8h0l0.1,1.6h1.7c0-0.8-0.1-1.6-0.1-2.4V376.3z M447.9,374.1h1.7v-2.1h-1.7V374.1z M451.3,374.1h1.7v-2.1
				h-1.7V374.1z"/>
			<path class="st2" d="M456.9,387.3h1.8v-5.8c0-2.4,1-3.6,2.4-3.6c0.2,0,0.5,0,0.7,0.1v-1.8c-1.6,0-2.5,0.5-3.1,1.9h0l-0.1-1.7
				h-1.7c0,0.8,0.1,1.6,0.1,2.4V387.3z"/>
			<polygon class="st2" points="468.8,387.3 470.6,387.3 470.6,375 470.6,375 476.3,387.3 478.6,387.3 478.6,372.3 476.8,372.3 
				476.8,384.7 476.8,384.7 471.1,372.3 468.8,372.3 			"/>
			<path class="st1" d="M482.2,378.8c0.6-0.7,1.7-1.1,2.8-1.1c0.8,0,1.5,0.2,1.8,0.7c0.3,0.5,0.4,0.9,0.4,1.8v0.5h-1.1
				c-3.8,0-5.2,1.6-5.2,3.7c0,2.1,1.4,3.2,3.2,3.2c1.7,0,2.6-0.8,3.1-1.6h0l0.1,1.5h1.6c0-0.4-0.1-1-0.1-1.7v-5.7
				c0-1.5-0.5-2.2-1-2.7c-0.3-0.3-1.3-1-2.9-1c-1.1,0-2.2,0.3-3.1,0.9L482.2,378.8z M487.3,383.3c0,1.5-1,2.8-2.6,2.8
				c-1.2,0-1.8-0.8-1.8-1.9c0-1.3,1-2.3,3.1-2.3c0.5,0,0.9,0,1.3,0V383.3z"/>
			<path class="st2" d="M498.1,376.6c-0.6-0.3-1.4-0.4-2.2-0.4c-3.1,0-4.9,2.2-4.9,5.7c0,3.1,1.6,5.5,4.9,5.5c0.8,0,1.8-0.2,2.3-0.5
				l-0.1-1.7c-0.6,0.3-1.4,0.6-2.2,0.6c-1.8,0-3-1.4-3-4c0-3,1.2-4.2,3-4.2c0.8,0,1.5,0.2,2.1,0.5L498.1,376.6z"/>
			<path class="st2" d="M499.9,387.3h1.8v-6.6c0-2,0.9-3,2.3-3c1.2,0,1.8,0.7,1.8,2.5v7.1h1.8v-7.6c0-2.4-1.3-3.5-3.2-3.5
				c-1.3,0-2.2,0.7-2.7,1.7h0v-6.7h-1.8V387.3z"/>
			<path class="st2" d="M510.3,387.3h1.8v-6.6c0-2,0.9-3,2.3-3c1.2,0,1.8,0.7,1.8,2.5v7.1h1.8v-7.6c0-2.4-1.3-3.5-3.2-3.5
				c-1.3,0-2.2,0.7-2.7,1.7h0v-6.7h-1.8V387.3z"/>
			<path class="st1" d="M521.2,378.8c0.6-0.7,1.7-1.1,2.8-1.1c0.7,0,1.5,0.2,1.8,0.7c0.3,0.5,0.4,0.9,0.4,1.8v0.5h-1.1
				c-3.8,0-5.2,1.6-5.2,3.7c0,2.1,1.4,3.2,3.2,3.2c1.7,0,2.6-0.8,3.1-1.6h0l0.1,1.5h1.6c0-0.4-0.1-1-0.1-1.7v-5.7
				c0-1.5-0.5-2.2-0.9-2.7c-0.3-0.3-1.3-1-2.9-1c-1.1,0-2.2,0.3-3.1,0.9L521.2,378.8z M526.3,383.3c0,1.5-1,2.8-2.6,2.8
				c-1.2,0-1.8-0.8-1.8-1.9c0-1.3,1-2.3,3.1-2.3c0.5,0,0.9,0,1.3,0V383.3z"/>
			<rect x="530.7" y="371.2" class="st2" width="1.8" height="16.1"/>
			<path class="st2" d="M540.2,385.7c-0.3,0.2-0.7,0.3-1.1,0.3c-0.8,0-1.1-0.5-1.1-1.7v-6.5h2.3v-1.5h-2.3v-2.8l-1.8,0.5v2.2h-1.7
				v1.5h1.7v7c0,1.9,0.9,2.6,2.5,2.6c0.5,0,1.1-0.1,1.5-0.3V385.7z"/>
			<path class="st1" d="M541.9,387.3h1.8v-11h-1.8V387.3z M541.8,374h2v-2.1h-2V374z"/>
			<path class="st1" d="M547.7,381.8c0-2.8,0.8-4.2,2.4-4.2c1.7,0,2.4,1.4,2.4,4.2c0,2.7-0.8,4.2-2.4,4.2
				C548.5,386,547.7,384.5,547.7,381.8 M554.3,378.3c0-0.7,0.1-1.4,0.1-2h-1.7l-0.1,1.6h0c-0.6-1-1.6-1.7-2.7-1.7
				c-2.5,0-4,1.9-4,5.6c0,3.8,1.5,5.6,3.8,5.6c1.2,0,2.2-0.6,2.9-1.8h0v1.7c0,1.9-0.9,3.2-3.1,3.2c-1,0-2.2-0.4-3-0.9l-0.1,1.8
				c0.8,0.3,2.3,0.7,3.2,0.7c2.4,0,4.7-1.3,4.7-4.3V378.3z"/>
			<path class="st1" d="M564.3,382.3v-1c0-3.2-1.4-5.2-3.8-5.2c-2.7,0-4.2,2.2-4.2,5.6c0,3.4,1.5,5.6,4.4,5.6c1.1,0,2.2-0.2,3.1-0.6
				l-0.1-1.6c-0.6,0.4-1.6,0.9-2.5,0.9c-2,0-3-1.2-3-3.7H564.3z M558.1,381c0-2.6,1.1-3.4,2.2-3.4c1.4,0,2.2,1.1,2.2,3.4H558.1z"/>
			<path class="st2" d="M565.7,386.8c0.8,0.4,1.8,0.6,3,0.6c2.5,0,3.5-1.5,3.5-3.4c0-1.4-0.8-2.3-2.2-2.8l-0.6-0.3
				c-1.2-0.5-1.8-1-1.8-1.9c0-0.9,0.6-1.5,1.8-1.5c0.8,0,1.6,0.2,2.1,0.5l0.1-1.5c-0.6-0.2-1.4-0.4-2.3-0.4c-2.1,0-3.5,1.4-3.5,3.2
				c0,1.4,0.6,2.1,2.1,2.8l1.2,0.5c1,0.5,1.4,1,1.4,1.7c0,0.8-0.7,1.5-2.1,1.5c-0.9,0-1.8-0.3-2.6-0.8L565.7,386.8z"/>
			<path class="st1" d="M579.8,387.3h3.6c3.3,0,4.7-2,4.7-4.1c0-2.1-1.2-3.5-2.8-3.7v0c1.5-0.4,2.5-1.7,2.5-3.3
				c0-2.2-1.3-3.8-4.2-3.8h-3.8V387.3z M581.7,373.8h1.4c2,0,2.7,1.1,2.7,2.4c0,1.6-1,2.6-3.1,2.6h-1.1V373.8z M581.7,380.3h1.8
				c1.8,0,2.7,1.2,2.7,2.7c0,1.4-0.9,2.7-2.9,2.7h-1.6V380.3z"/>
			<path class="st1" d="M591.2,378.8c0.6-0.7,1.7-1.1,2.8-1.1c0.8,0,1.5,0.2,1.8,0.7c0.3,0.5,0.4,0.9,0.4,1.8v0.5h-1.1
				c-3.8,0-5.2,1.6-5.2,3.7c0,2.1,1.4,3.2,3.2,3.2c1.7,0,2.6-0.8,3.1-1.6h0l0.1,1.5h1.6c0-0.4-0.1-1-0.1-1.7v-5.7
				c0-1.5-0.5-2.2-0.9-2.7c-0.3-0.3-1.3-1-2.9-1c-1.1,0-2.2,0.3-3.1,0.9L591.2,378.8z M596.2,383.3c0,1.5-1,2.8-2.6,2.8
				c-1.2,0-1.8-0.8-1.8-1.9c0-1.3,1-2.3,3.1-2.3c0.5,0,0.9,0,1.3,0V383.3z"/>
			<path class="st2" d="M608.3,376.3h-1.8v6.6c0,2-0.9,3-2.3,3c-1.2,0-1.8-0.8-1.8-2.5v-7.1h-1.8v7.6c0,2.4,1.3,3.5,3.2,3.5
				c1.3,0,2.2-0.5,2.8-1.8h0l0.1,1.6h1.7c0-0.8-0.1-1.6-0.1-2.4V376.3z"/>
		</g>
		<g>
			<path class="st1" d="M618.4,382.3v-1c0-3.2-1.4-5.2-3.8-5.2c-2.7,0-4.2,2.2-4.2,5.6c0,3.4,1.5,5.6,4.4,5.6c1.1,0,2.2-0.2,3.1-0.6
				l-0.1-1.6c-0.6,0.4-1.6,0.9-2.5,0.9c-2,0-3-1.2-3-3.7H618.4z M612.2,381c0-2.6,1.1-3.4,2.2-3.4c1.4,0,2.1,1.1,2.1,3.4H612.2z"/>
			<path class="st2" d="M620.4,387.3h1.8v-6.6c0-2,0.9-3,2.3-3c1.2,0,1.8,0.7,1.8,2.5v7.1h1.8v-7.6c0-2.4-1.3-3.5-3.2-3.5
				c-1.3,0-2.2,0.5-2.8,1.8h0l-0.1-1.6h-1.7c0,0.8,0.1,1.6,0.1,2.4V387.3z"/>
		</g>
		<g>
			<path class="st2" d="M266.8,403.4v7.4c-0.4,0.2-0.6,0.3-0.8,0.4c-0.5,0.1-1.5,0.4-2.9,0.4c-0.8,0-2.7,0-4.4-1.5
				c-1.7-1.5-2.4-3.9-2.4-6.1c0-1,0.1-4.4,3-6.3c1.5-1,3.1-1.1,3.7-1.1c0.6,0,1.9,0.1,3.3,0.7v1.8c-0.5-0.3-1.6-0.9-3.1-0.9
				c-0.3,0-1,0-1.8,0.3c-1.4,0.5-3.2,1.9-3.2,5.3c0,0.6,0,3.4,1.8,5c0.5,0.5,1.4,1.1,3,1.1c0.2,0,1.1,0,1.9-0.4V405h-2.5v-1.6H266.8
				z"/>
			<path class="st2" d="M276.5,410.9c-0.1,0.1-0.2,0.1-0.4,0.2c-0.4,0.1-1.4,0.5-2.5,0.5c-1.1,0-2-0.3-2.8-1.1
				c-0.8-0.7-1.6-2-1.6-4.4c0-4.1,2.2-5.6,4.2-5.6c1.3,0,2.3,0.6,3,1.7c0.7,1.2,0.8,2.5,0.8,3.9v0.4l-6.1,0c0,0.3,0,2.1,1.2,3
				c0.3,0.2,0.8,0.5,1.7,0.5c0.7,0,1.4-0.1,2.6-0.9L276.5,410.9z M275.4,405.3c-0.1-1.3-0.2-2-0.5-2.5c-0.3-0.5-0.9-0.8-1.5-0.8
				c-0.4,0-0.8,0.1-1.2,0.4c-0.6,0.5-1,1.3-1.1,2.9H275.4z"/>
			<path class="st2" d="M280.9,400.8c0.1,0.6,0.1,1.3,0.1,1.9c0.1-0.3,0.3-0.6,0.5-0.8c0.9-1.3,2-1.3,2.6-1.3v1.7
				c-0.1,0-0.1-0.1-0.3-0.1c-0.3,0-1,0.1-1.2,0.3c-0.5,0.3-1,0.9-1.2,1.4c-0.1,0.4-0.1,0.8-0.1,1.2v6.3h-1.8v-6.8c0-0.7,0-1.4,0-2.2
				c0-0.6-0.1-1.1-0.1-1.7L280.9,400.8z"/>
			<path class="st2" d="M298.7,411.4h-1.8V404c0-0.4-0.1-1.9-1.6-1.9c-0.4,0-0.7,0.1-0.8,0.2c-0.5,0.2-0.9,0.8-1.1,1.3
				c-0.1,0.4-0.1,0.8-0.1,1.1v6.7h-1.8v-7c0-0.7,0-1.4-0.6-1.9c-0.2-0.2-0.5-0.4-1.1-0.4c-0.1,0-0.4,0-0.6,0.1
				c-0.5,0.2-1,0.7-1.2,1.2c-0.1,0.3-0.2,0.6-0.2,1v6.9h-1.8v-9.3c0-0.5,0-0.9,0-1.4l1.6,0c0,0.5,0,1,0,1.5c0.7-1,1.5-1.8,2.8-1.8
				c0.8,0,1.5,0.4,2,1c0.2,0.2,0.3,0.3,0.5,0.7c0.1-0.1,0.2-0.3,0.3-0.4c0.9-1.2,1.7-1.3,2.4-1.3c1.3,0,2.4,0.8,2.8,2.1
				c0.1,0.4,0.2,0.7,0.2,1.5V411.4z"/>
			<path class="st2" d="M308.5,408.9c0,0.5,0,0.9,0,1.3c0,0.4,0,0.8,0.1,1.2h-1.7c0-0.4-0.1-0.7-0.1-1.1c0-0.1,0-0.3,0-0.4
				c-0.7,1-1.6,1.7-2.9,1.7c-1.3,0-2-0.6-2.3-1c-0.3-0.3-0.8-1.1-0.8-2.3c0-0.3,0-1.1,0.6-1.8c0.7-1.1,2-1.7,4.6-1.7
				c0.3,0,0.5,0,0.8,0c0-0.1,0-1-0.1-1.5c-0.2-0.6-0.6-1.4-2-1.4c-0.6,0-1.6,0.2-2.7,1l-0.2-1.6c0.5-0.3,1.5-0.8,3.1-0.8
				c1.5,0,2.9,0.6,3.3,2.1c0.2,0.6,0.2,1.2,0.2,1.9V408.9z M306.8,406.1c-1.9-0.1-3.1,0.1-3.7,0.8c-0.3,0.4-0.5,1-0.5,1.5
				c0,0.7,0.3,1.1,0.5,1.3c0.4,0.4,0.7,0.5,1.3,0.5c0.6,0,1.1-0.2,1.6-0.6c0.2-0.2,0.5-0.5,0.7-1.1c0.2-0.6,0.2-1.1,0.2-1.3V406.1z"
				/>
			<path class="st2" d="M312.9,400.8c0,0.5,0,1.1,0,1.7c0.1-0.1,0.2-0.3,0.2-0.4c0.3-0.4,1.1-1.5,2.6-1.5c0.8,0,1.4,0.3,1.6,0.5
				c1.3,0.9,1.3,2.6,1.3,3v7.4h-1.8v-7c0-0.3,0-0.7-0.1-1c-0.1-0.3-0.4-1.3-1.6-1.3c-0.6,0-1.2,0.3-1.6,0.8
				c-0.5,0.7-0.5,1.4-0.5,2.2v6.3h-1.8v-7.6c0-1,0-2,0-3.1L312.9,400.8z"/>
			<path class="st2" d="M333.1,398.9c-0.3-0.2-1.2-0.7-2.3-0.7c-1.3,0-2.3,0.7-2.3,2.1c0,1.2,0.9,1.8,1.8,2.4
				c0.6,0.4,1.1,0.7,1.7,1.2c1.7,1.3,1.9,2.5,1.9,3.5c0,1-0.3,1.9-0.9,2.7c-0.8,1-1.8,1.4-3.1,1.4c-0.5,0-1.8-0.1-3.2-0.7l0.1-1.9
				c0.4,0.3,1.4,0.9,2.8,0.9c2.1,0,2.3-1.8,2.3-2.5c0-0.8-0.2-1.4-1.5-2.3c-0.6-0.4-1.2-0.8-1.8-1.2c-0.1-0.1-0.7-0.5-1.2-1
				c-0.4-0.4-1-1.2-1-2.6c0-2.4,1.7-3.8,4-3.8c1.2,0,2.2,0.4,2.6,0.5L333.1,398.9z"/>
			<path class="st2" d="M343.6,408.5c0,0.5,0,1,0,1.5c0,0.5,0,1,0,1.4H342v-1.6c-0.1,0.2-0.2,0.3-0.3,0.5c-0.3,0.4-0.9,0.9-1.4,1.1
				c-0.2,0.1-0.6,0.2-1.1,0.2c-0.8,0-1.3-0.3-1.6-0.4c-1.3-0.8-1.3-2.4-1.4-3.7v-6.7h1.8v7.2c0,0.3,0,2.1,1.7,2.1
				c1.4,0,1.9-1.3,2-1.7c0.1-0.4,0.1-0.7,0.1-1.1v-6.5h1.8V408.5z"/>
			<path class="st2" d="M351.4,402.5c-0.1,0-1.2-0.5-1.9-0.5c-1.3,0-1.6,1-1.6,1.5c0,1,1.1,1.4,1.8,1.8c0.3,0.2,0.6,0.3,1,0.5
				c1,0.7,1.5,1.4,1.5,2.6c0,1.3-0.7,2.6-2,3.1c-0.5,0.2-1.2,0.2-1.3,0.2c-1.2,0-1.6-0.1-2.8-0.5l0.2-1.7c0.1,0.1,0.3,0.1,0.4,0.2
				c0.2,0.1,1.1,0.5,2,0.5c1.5,0,1.9-1.1,1.9-1.6c0-1.2-1.2-1.5-2-1.9c-0.1-0.1-0.5-0.2-0.9-0.5c-1.3-0.8-1.4-1.8-1.4-2.5
				c0-0.2,0-0.6,0.1-1c0.2-0.8,1.1-2,3.1-2c0.9,0,1.9,0.3,2.1,0.3L351.4,402.5z"/>
			<path class="st2" d="M359.1,402.2h-2.2v6.1c0,0.4,0,1.1,0.2,1.4c0.1,0.2,0.5,0.4,1.1,0.4c0.2,0,0.5,0,1-0.2l0,1.4
				c-0.2,0.1-0.6,0.2-1.2,0.2c-1.3,0-1.9-0.4-2.3-0.9c-0.5-0.7-0.5-1.4-0.5-2.2v-6.3h-1.7v-1.4h1.7v-2.2l1.8-0.5v2.7h2.2V402.2z"/>
			<path class="st2" d="M368.2,408.9c0,0.5,0,0.9,0,1.3c0,0.4,0,0.8,0.1,1.2h-1.7c0-0.4-0.1-0.7-0.1-1.1c0-0.1,0-0.3,0-0.4
				c-0.7,1-1.6,1.7-2.9,1.7c-1.3,0-2-0.6-2.3-1c-0.3-0.3-0.8-1.1-0.8-2.3c0-0.3,0-1.1,0.6-1.8c0.7-1.1,2-1.7,4.6-1.7
				c0.3,0,0.5,0,0.8,0c0-0.1,0-1-0.1-1.5c-0.2-0.6-0.6-1.4-2-1.4c-0.6,0-1.6,0.2-2.7,1l-0.2-1.6c0.5-0.3,1.5-0.8,3.1-0.8
				c1.5,0,2.9,0.6,3.3,2.1c0.2,0.6,0.2,1.2,0.2,1.9V408.9z M366.5,406.1c-1.9-0.1-3.1,0.1-3.7,0.8c-0.3,0.4-0.5,1-0.5,1.5
				c0,0.7,0.3,1.1,0.5,1.3c0.4,0.4,0.7,0.5,1.3,0.5c0.6,0,1.1-0.2,1.6-0.6c0.2-0.2,0.5-0.5,0.7-1.1c0.2-0.6,0.2-1.1,0.2-1.3V406.1z"
				/>
			<path class="st2" d="M372.9,398.5h-2v-2.1h2V398.5z M372.8,411.4H371v-10.7h1.8V411.4z"/>
			<path class="st2" d="M377.2,400.8c0,0.5,0,1.1,0,1.7c0.1-0.1,0.2-0.3,0.2-0.4c0.3-0.4,1.1-1.5,2.6-1.5c0.8,0,1.4,0.3,1.6,0.5
				c1.3,0.9,1.3,2.6,1.3,3v7.4h-1.8v-7c0-0.3,0-0.7-0.1-1c-0.1-0.3-0.4-1.3-1.6-1.3c-0.6,0-1.2,0.3-1.6,0.8
				c-0.5,0.7-0.5,1.4-0.5,2.2v6.3h-1.8v-7.6c0-1,0-2,0-3.1L377.2,400.8z"/>
			<path class="st2" d="M392.7,408.9c0,0.5,0,0.9,0,1.3c0,0.4,0,0.8,0.1,1.2h-1.7c0-0.4-0.1-0.7-0.1-1.1c0-0.1,0-0.3,0-0.4
				c-0.7,1-1.6,1.7-2.9,1.7c-1.3,0-2-0.6-2.3-1c-0.3-0.3-0.8-1.1-0.8-2.3c0-0.3,0-1.1,0.6-1.8c0.7-1.1,2-1.7,4.6-1.7
				c0.3,0,0.5,0,0.8,0c0-0.1,0-1-0.1-1.5c-0.2-0.6-0.6-1.4-2-1.4c-0.6,0-1.5,0.2-2.7,1l-0.2-1.6c0.5-0.3,1.5-0.8,3.1-0.8
				c1.5,0,2.9,0.6,3.4,2.1c0.2,0.6,0.2,1.2,0.2,1.9V408.9z M391.1,406.1c-1.9-0.1-3.1,0.1-3.7,0.8c-0.3,0.4-0.5,1-0.5,1.5
				c0,0.7,0.3,1.1,0.5,1.3c0.4,0.4,0.7,0.5,1.3,0.5c0.6,0,1.1-0.2,1.6-0.6c0.2-0.2,0.5-0.5,0.7-1.1c0.2-0.6,0.2-1.1,0.2-1.3V406.1z"
				/>
			<path class="st2" d="M397.2,400.3c0,0.7,0,1.3-0.1,2c0.2-0.2,0.4-0.4,0.5-0.6c0.9-0.9,1.8-1.1,2.3-1c0.4,0,1.3,0.1,2.1,0.8
				c1.4,1.2,1.6,3.1,1.6,4.8c0,1.5-0.2,3-1.2,4.3c-0.5,0.6-0.9,0.8-1.2,1c-0.2,0.1-0.7,0.3-1.3,0.3c-0.4,0-1.2,0-1.9-0.7
				c-0.5-0.4-0.8-0.9-1-1.1v1.6h-1.7c0-0.6,0-1.2,0-1.7c0-0.5,0-1,0-1.5v-12.6h1.8V400.3z M398.4,402.4c-0.8,0.6-1.2,1.7-1.2,3.7
				c0,1.3,0.2,2.1,0.4,2.6c0.4,0.8,1.1,1.4,2,1.4c0.6,0,1.1-0.2,1.4-0.6c0.7-0.9,0.8-2.5,0.8-3.5c0-1.6-0.3-2.6-0.7-3.1
				c-0.5-0.7-1.2-0.8-1.5-0.9C399.4,402,398.9,402,398.4,402.4"/>
			<rect x="406.1" y="395.6" class="st2" width="1.8" height="15.8"/>
			<path class="st2" d="M417.6,410.9c-0.1,0.1-0.2,0.1-0.4,0.2c-0.4,0.1-1.4,0.5-2.5,0.5c-1.1,0-2-0.3-2.8-1.1
				c-0.8-0.7-1.6-2-1.6-4.4c0-4.1,2.1-5.6,4.2-5.6c1.3,0,2.3,0.6,3,1.7c0.7,1.2,0.8,2.5,0.8,3.9v0.4l-6.1,0c0,0.3,0,2.1,1.2,3
				c0.3,0.2,0.8,0.5,1.7,0.5c0.7,0,1.4-0.1,2.6-0.9L417.6,410.9z M416.5,405.3c-0.1-1.3-0.2-2-0.5-2.5c-0.3-0.5-0.9-0.8-1.5-0.8
				c-0.4,0-0.8,0.1-1.2,0.4c-0.6,0.5-1,1.3-1.1,2.9H416.5z"/>
			<path class="st2" d="M429.4,396.8c0.6,0,1.1,0,1.7,0.1c1.8,0.4,2.8,1.7,2.8,3.5c0,0.2,0,0.8-0.2,1.3c-0.5,1.3-1.7,1.8-2.1,1.9
				c0.7,0.3,1.3,0.5,1.8,1.1c0.4,0.5,0.8,1.2,0.8,2.5c0,2.6-1.8,3.6-2.7,3.8c-0.6,0.2-1.1,0.2-2.2,0.2h-3.1v-14.6H429.4z
				 M427.9,403.1h1.2c0.7,0,0.9,0,1.2-0.1c1.1-0.3,1.6-1.2,1.6-2.3c0-0.2,0-1.2-0.7-1.8c-0.7-0.6-1.8-0.6-2.1-0.6h-1.3V403.1z
				 M427.9,409.9h1.3c0.9,0,1.7-0.1,2.4-0.7c0.1-0.1,0.4-0.4,0.5-0.8c0.1-0.4,0.2-0.9,0.2-1c0-0.4-0.1-1.9-1.5-2.5
				c-0.4-0.1-0.8-0.1-1.3-0.2h-1.5V409.9z"/>
			<path class="st2" d="M443.9,408.5c0,0.5,0,1,0,1.5c0,0.5,0,1,0,1.4h-1.7v-1.6c-0.1,0.2-0.2,0.3-0.3,0.5c-0.3,0.4-0.9,0.9-1.4,1.1
				c-0.2,0.1-0.6,0.2-1.1,0.2c-0.8,0-1.3-0.3-1.6-0.4c-1.3-0.8-1.3-2.4-1.4-3.7v-6.7h1.8v7.2c0,0.3,0,2.1,1.7,2.1
				c1.4,0,1.9-1.3,2-1.7c0.1-0.4,0.1-0.7,0.1-1.1v-6.5h1.8V408.5z"/>
			<path class="st2" d="M448.6,398.5h-2v-2.1h2V398.5z M448.5,411.4h-1.8v-10.7h1.8V411.4z"/>
			<rect x="451.3" y="395.6" class="st2" width="1.8" height="15.8"/>
			<path class="st2" d="M462.1,411.4c0-0.5-0.1-1.1-0.1-1.6c-0.1,0.2-0.2,0.3-0.4,0.5c-0.1,0.2-0.6,0.8-1.3,1.1
				c-0.2,0.1-0.6,0.2-1.2,0.2c-0.4,0-1.3-0.1-2.2-0.8c-0.6-0.5-1.2-1.4-1.4-3.1c0-0.2-0.1-0.8-0.1-1.4c0-3,1.3-4.8,2.4-5.3
				c0.2-0.1,0.7-0.3,1.3-0.3c1.6,0,2.4,1.3,2.7,1.7v-6.6h1.8v13.5c0,0.8,0,1.5,0,2.3H462.1z M457.9,409.1c0.4,0.6,1,1,1.7,1
				c1.4,0,1.9-1.4,2-1.7c0.1-0.2,0.2-0.6,0.2-1.1c0-0.5,0.1-0.9,0.1-1.4c0-0.2,0-1.4-0.3-2.3c-0.1-0.3-0.6-1.7-2-1.7
				c-0.6,0-1,0.2-1.1,0.4c-0.8,0.6-1.2,1.7-1.2,3.7C457.3,407.6,457.6,408.5,457.9,409.1"/>
			<path class="st2" d="M468.4,398.5h-2v-2.1h2V398.5z M468.3,411.4h-1.8v-10.7h1.8V411.4z"/>
		</g>
		<g>
			<path class="st2" d="M472.7,400.8c0,0.5,0,1.1,0,1.7c0.1-0.1,0.2-0.3,0.2-0.4c0.3-0.4,1.1-1.5,2.6-1.5c0.8,0,1.4,0.3,1.6,0.5
				c1.3,0.9,1.3,2.6,1.3,3v7.4h-1.8v-7c0-0.3,0-0.7-0.1-1c-0.1-0.3-0.4-1.3-1.6-1.3c-0.6,0-1.2,0.3-1.6,0.8
				c-0.5,0.7-0.5,1.4-0.5,2.2v6.3h-1.8v-7.6c0-1,0-2,0-3.1L472.7,400.8z"/>
			<path class="st2" d="M489.1,411.5c0,0.5,0,1.8-0.9,3c-1.2,1.6-3,1.5-3.6,1.5c-0.9,0-1.6,0-3.2-0.6l0.1-1.8
				c0.4,0.2,1.6,0.9,3.1,0.9c1,0,2-0.3,2.5-1.3c0.5-0.8,0.3-1.7,0.5-3.5c-0.1,0.2-0.2,0.3-0.3,0.5c-0.4,0.4-1,1.2-2.5,1.2
				c-0.2,0-0.8,0-1.4-0.3c-1.3-0.6-2.4-2.1-2.4-5.1c0-0.5,0-1,0.1-1.4c0.1-0.5,0.2-2.1,1.5-3.3c0.3-0.2,1.1-0.8,2.2-0.8
				c1.1,0,1.7,0.5,2,0.8c0.5,0.4,0.7,0.7,0.8,1c0-0.5,0-1.1,0-1.6l1.6,0V411.5z M483.5,402.8c-0.5,0.6-0.7,1.5-0.7,3.1
				c0,0.2,0,1.5,0.3,2.5c0,0.1,0.1,0.4,0.3,0.7c0.4,0.6,1,0.9,1.7,0.9c1.3,0,1.9-1.1,2-1.5c0.4-0.9,0.4-2.5,0.4-2.6
				c0-1.8-0.3-2.7-1-3.3c-0.2-0.2-0.7-0.6-1.5-0.6C484.7,402.1,484,402.1,483.5,402.8"/>
		</g>
		<g>
			<path class="st2" d="M506.1,399c-0.4-0.2-1.3-0.8-2.6-0.7c-0.4,0-1.4,0.1-2.4,0.7c-1.1,0.7-2.2,2.2-2.2,5.1c0,0.4,0,1.3,0.3,2.3
				c0.6,2.1,2.1,3.5,4.3,3.5c0.6,0,1.4-0.1,2.6-0.7v1.9c-0.5,0.2-1.4,0.5-2.7,0.5c-1.3,0-2.1-0.3-2.6-0.5c-0.8-0.3-2.1-1.1-3.1-3
				c-0.4-0.8-0.8-2-0.8-4c0-0.4,0-1.7,0.4-2.9c0.8-2.7,3-4.5,5.9-4.5c0.6,0,1.5,0.1,2.8,0.5V399z"/>
			<path class="st2" d="M514.7,401.3c1.6,1.1,1.9,3,1.9,4.8c0,0.3,0,1.1-0.2,2c-0.1,0.6-0.7,2.8-2.9,3.4c-0.3,0.1-0.6,0.2-1.3,0.2
				c-0.7,0-2.2-0.1-3.3-1.6c-0.5-0.8-1-1.9-1-3.9c0-2,0.5-3.1,1-3.8c0.1-0.1,0.4-0.5,0.7-0.8c0.4-0.3,1.3-0.9,2.7-0.9
				C512.8,400.5,513.7,400.6,514.7,401.3 M510.6,402.8c-0.8,1.1-0.8,3.2-0.8,3.3c0,0.1,0,2.3,0.8,3.3c0.2,0.3,0.8,0.7,1.7,0.7
				c0.5,0,0.9-0.1,1.3-0.4c1-0.7,1.1-2.3,1.1-3.4c0-1.7-0.3-2.8-0.7-3.5c-0.4-0.6-1-0.9-1.8-0.9C512,402,511.2,402.1,510.6,402.8"/>
			<path class="st2" d="M526.4,408.5c0,0.5,0,1,0,1.5c0,0.5,0,1,0,1.4h-1.7v-1.6c-0.1,0.2-0.2,0.3-0.3,0.5c-0.3,0.4-0.9,0.9-1.4,1.1
				c-0.2,0.1-0.6,0.2-1.1,0.2c-0.8,0-1.3-0.3-1.6-0.4c-1.3-0.8-1.3-2.4-1.4-3.7v-6.7h1.8v7.2c0,0.3,0,2.1,1.7,2.1
				c1.4,0,1.9-1.3,2-1.7c0.1-0.4,0.1-0.7,0.1-1.1v-6.5h1.8V408.5z"/>
			<path class="st2" d="M530.8,400.8c0,0.5,0,1.1,0,1.7c0.1-0.1,0.2-0.3,0.2-0.4c0.3-0.4,1.1-1.5,2.6-1.5c0.8,0,1.4,0.3,1.6,0.5
				c1.3,0.9,1.3,2.6,1.3,3v7.4h-1.8v-7c0-0.3,0-0.7-0.1-1c-0.1-0.3-0.4-1.3-1.6-1.3c-0.6,0-1.2,0.3-1.6,0.8
				c-0.5,0.7-0.5,1.4-0.5,2.2v6.3h-1.8v-7.6c0-1,0-2,0-3.1L530.8,400.8z"/>
			<path class="st2" d="M545.6,402.7c-0.1-0.1-0.2-0.2-0.4-0.2c-0.2-0.1-0.9-0.4-1.6-0.4c-0.5,0-1.3,0.1-2,1
				c-0.4,0.5-0.8,1.3-0.8,2.7c0,1.9,0.5,2.9,1.2,3.5c0.7,0.7,1.5,0.7,1.9,0.7c0.9,0,1.5-0.3,1.8-0.5l0.1,1.6
				c-0.9,0.4-1.8,0.4-2.2,0.4c-1.1,0-1.8-0.3-2.2-0.5c-2.4-1.3-2.4-4.3-2.4-5c0-0.6,0-3.2,2-4.7c0.4-0.3,1.2-0.8,2.5-0.8
				c1.1,0,1.8,0.3,2.2,0.5L545.6,402.7z"/>
			<path class="st2" d="M549.8,398.5h-2v-2.1h2V398.5z M549.7,411.4h-1.8v-10.7h1.8V411.4z"/>
			<rect x="552.5" y="395.6" class="st2" width="1.8" height="15.8"/>
		</g>
		<g>
			<defs>
				<path id="SVGID_4_" d="M92.3,412.1c-0.4-0.1-0.9-0.3-1.3-0.4C91.4,411.9,91.9,412,92.3,412.1 M56.6,257.9L56.6,257.9
					c2.5-2.3,5.1-4.5,7.9-6.5C61.7,253.4,59.1,255.6,56.6,257.9 M113.5,233.8c-1.6,0-3.1,0.1-4.7,0.3l0,0
					c-16.5,1.8-31.6,7.9-44.3,17.3c0,0,0,0,0.1,0c54.3-33.1,82.1,21.4,83.3,75.9c1,46.7-17.5,93.4-55.4,84.9c0,0-0.1,0-0.1,0
					c8.3,2.5,17.2,3.9,26.3,3.9c4.8,0,9.6-0.4,14.2-1.1v0c0,0,0,0,0.1,0c53.7-9.3,53.1-180.4-18.7-181H113.5z"/>
			</defs>
			<clipPath id="SVGID_5_">
				<use xlink:href="#SVGID_4_"  style="overflow:visible;"/>
			</clipPath>
			
				<linearGradient id="SVGID_6_" gradientUnits="userSpaceOnUse" x1="21.6186" y1="746.5031" x2="25.2062" y2="746.5031" gradientTransform="matrix(0 -50.7769 -50.7769 0 38026.75 1513.7258)">
				<stop  offset="0" style="stop-color:#4AA139"/>
				<stop  offset="0.4635" style="stop-color:#69AB3E"/>
				<stop  offset="0.4917" style="stop-color:#6BAC3E"/>
				<stop  offset="0.5027" style="stop-color:#6AAC3E"/>
				<stop  offset="0.8088" style="stop-color:#53A43A"/>
				<stop  offset="1" style="stop-color:#4AA139"/>
			</linearGradient>
			<rect x="56.6" y="218.3" class="st3" width="130" height="202.3"/>
		</g>
		<g>
			<defs>
				<path id="SVGID_7_" d="M28.8,340.3c0.4,3.1,1.1,6,1.9,8.6C29.9,346.1,29.3,343.2,28.8,340.3L28.8,340.3z M30.7,348.9
					C30.7,348.9,30.7,348.9,30.7,348.9c4.9,17.9,15.1,33.6,28.9,45.3v0c39.4,32.1,152.9-33.7,150.3-71.7v0
					c-0.2-10.1-2.1-19.7-5.4-28.7C217.9,333.6,69.3,447.6,30.7,348.9 M204.5,293.8C204.5,293.8,204.5,293.8,204.5,293.8
					C204.5,293.8,204.5,293.8,204.5,293.8 M204.5,293.8C204.5,293.8,204.5,293.8,204.5,293.8C204.5,293.8,204.5,293.8,204.5,293.8
					 M204.5,293.8L204.5,293.8L204.5,293.8C204.5,293.8,204.5,293.8,204.5,293.8"/>
			</defs>
			<clipPath id="SVGID_8_">
				<use xlink:href="#SVGID_7_"  style="overflow:visible;"/>
			</clipPath>
			
				<linearGradient id="SVGID_9_" gradientUnits="userSpaceOnUse" x1="29.13" y1="739.0942" x2="32.7176" y2="739.0942" gradientTransform="matrix(50.4874 0 0 -50.4874 -1441.9282 37685.6602)">
				<stop  offset="0" style="stop-color:#4AA139"/>
				<stop  offset="0.4714" style="stop-color:#69AB3E"/>
				<stop  offset="0.5" style="stop-color:#6BAC3E"/>
				<stop  offset="0.5109" style="stop-color:#6AAC3E"/>
				<stop  offset="0.812" style="stop-color:#53A43A"/>
				<stop  offset="1" style="stop-color:#4AA139"/>
			</linearGradient>
			<rect x="28.8" y="293.8" class="st4" width="189.1" height="153.8"/>
		</g>
		<g>
			<path class="st5" d="M209.9,322.6L209.9,322.6c-1.4-20.9-43.3-4.5-68.8,25.4c-33.2,37.4-30.3,70.6-8.1,67v0
				c-4.6,0.7-9.4,1.1-14.2,1.1c-9.7,0-18.9-1.5-27.7-4.3c-16.7-6.3-5.5-45.2,20.2-76c31.9-38.2,83.3-66.7,93-42.7
				c0.1,0.2,0.2,0.5,0.3,0.7l0,0C207.7,302.8,209.6,312.5,209.9,322.6L209.9,322.6z"/>
		</g>
		<g>
			<defs>
				<path id="SVGID_10_" d="M59.6,394.3L59.6,394.3c-0.1-0.1-0.1-0.1-0.2-0.1C59.5,394.2,59.5,394.2,59.6,394.3 M59.4,394.1
					C59.4,394.1,59.4,394.1,59.4,394.1C59.4,394.1,59.4,394.1,59.4,394.1 M59.4,394.1C59.4,394.1,59.4,394.1,59.4,394.1
					c-0.1-0.1-0.2-0.2-0.4-0.3C59.1,393.9,59.3,394,59.4,394.1 M59,393.8c-0.1,0-0.1-0.1-0.2-0.1C58.9,393.7,59,393.7,59,393.8
					 M56.6,257.9L56.6,257.9c-22.5,21.7-31,59-27.8,82.3v0c3.6,21.2,14.6,39.9,30.1,53.4c-45.6-40.1-6.4-152.8,49.7-159.5
					c0.1,0,0.2,0,0.3,0l0,0C88.7,236.3,70.6,244.9,56.6,257.9"/>
			</defs>
			<clipPath id="SVGID_11_">
				<use xlink:href="#SVGID_10_"  style="overflow:visible;"/>
			</clipPath>
			
				<linearGradient id="SVGID_12_" gradientUnits="userSpaceOnUse" x1="28.0264" y1="731.3388" x2="31.6139" y2="731.3388" gradientTransform="matrix(22.4856 0 0 -22.4856 -602.0478 16758.7695)">
				<stop  offset="0" style="stop-color:#1A2E44"/>
				<stop  offset="0.1988" style="stop-color:#1C4163"/>
				<stop  offset="0.33" style="stop-color:#1D4B73"/>
				<stop  offset="0.4255" style="stop-color:#255084"/>
				<stop  offset="0.5605" style="stop-color:#2E5595"/>
				<stop  offset="0.66" style="stop-color:#31579B"/>
				<stop  offset="0.8006" style="stop-color:#285289"/>
				<stop  offset="1" style="stop-color:#1D4B73"/>
			</linearGradient>
			<rect x="13.3" y="234.1" class="st6" width="95.6" height="160.2"/>
		</g>
		<g>
			<defs>
				<path id="SVGID_13_" d="M209.9,322.6L209.9,322.6L209.9,322.6C209.9,322.5,209.9,322.5,209.9,322.6
					C209.9,322.5,209.9,322.5,209.9,322.6 M111.3,335.8c-25.7,30.8-37,69.7-20.2,76c8.7,2.8,18,4.3,27.7,4.3c4.8,0,9.6-0.4,14.2-1.1
					v0c-22.2,3.6-25.1-29.6,8.2-67c25.5-29.8,67.4-46.3,68.8-25.4c-0.3-10.1-2.1-19.7-5.4-28.8l0,0c-0.1-0.2-0.2-0.5-0.3-0.7
					c-2.5-6.1-7.7-8.8-14.5-8.8C169.6,284.2,135,307.3,111.3,335.8"/>
			</defs>
			<clipPath id="SVGID_14_">
				<use xlink:href="#SVGID_13_"  style="overflow:visible;"/>
			</clipPath>
			
				<linearGradient id="SVGID_15_" gradientUnits="userSpaceOnUse" x1="29.8661" y1="736.2633" x2="33.4536" y2="736.2633" gradientTransform="matrix(35.3289 0 0 -35.3289 -972.0247 26362.7227)">
				<stop  offset="0" style="stop-color:#1A2E44"/>
				<stop  offset="0.1988" style="stop-color:#1C4163"/>
				<stop  offset="0.33" style="stop-color:#1D4B73"/>
				<stop  offset="0.4255" style="stop-color:#255084"/>
				<stop  offset="0.5605" style="stop-color:#2E5595"/>
				<stop  offset="0.66" style="stop-color:#31579B"/>
				<stop  offset="0.8006" style="stop-color:#285289"/>
				<stop  offset="1" style="stop-color:#1D4B73"/>
			</linearGradient>
			<rect x="74.3" y="284.2" class="st7" width="135.6" height="134.3"/>
		</g>
	</g>
</g>
</svg>
